
        <svg xmlns="http://www.w3.org/2000/svg" xmlns:xlink="http://www.w3.org/1999/xlink" version="1.1" width="3171.4285714285716" 
        height="1182.0605914854134" viewBox="0 0 3171.4285714285716 1182.0605914854134">
			
			<g transform="scale(8.571428571428571) translate(10, 10)">
				<defs id="SvgjsDefs2338"></defs><g id="SvgjsG2339" featureKey="HdFLvg-0" transform="matrix(-1.5116279069767444,0,0,1.5116279069767444,140.58138958243438,-16.627814714298694)" fill="#ecf0f1"><g xmlns="http://www.w3.org/2000/svg" transform="translate(0,-952.36218)"><path d="m 38.999997,963.36214 0,28.98038 c -10.0212,-9.25848 -20.01562,-18.66928 -29.9999995,-28.01118 l 29.9999995,-0.9692 z m 2,1.0004 c 0.0444,0.2033 17.540491,18.2053 25.593751,27.97998 l -25.593751,0 0,-27.97998 z m -28.875,4.2517 13.34375,12.505 -18.4687495,-10.7855 5.1249995,-1.7195 z m 70.875001,2.7199 0,9.0036 0,12.00478 -13.5625,0 -6.218751,-7.31538 12.781251,-13.693 7,0 z m 2,1.8132 8.000004,7.1904 -8.000004,0 0,-7.1904 z m -2.96875,21.19598 -28.500001,29.41808 -12.03125,-29.41808 40.531251,0 z m -42.031251,1.6256 c 5.08075,12.43348 10.285471,24.81298 15,37.39008 l -15,8.0032 0,-45.39328 z" style="color:;enable-background:accumulate;" fill="#ecf0f1" stroke="none" marker="none" visibility="visible" display="inline" overflow="visible"></path></g></g><g id="SvgjsG2340" featureKey="VomJeJ-0" transform="matrix(5.449591167364901,0,0,5.449591167364901,145.9673031338205,-10.773842507056408)" fill="#ecf0f1"><path d="M1.14 16.9 l4.44 -6.1 q0.68 -0.98 1.62 -1.98 l-0.06 -0.06 q-1.42 0.18 -3.1 0.18 l-2.86 0 q-0.12 -0.46 -0.12 -1.11 t0.22 -1.49 l8.86 0 q0.44 1.66 0.44 2.11 t-0.36 0.97 l-4.46 6.12 q-0.68 0.96 -1.56 1.88 l0.06 0.06 q2 -0.14 3 -0.14 l1.12 0 q1.2 0 2.24 -0.46 q0.22 0.7 0.22 1.48 t-0.57 1.21 t-1.53 0.43 l-7.64 0 q-0.36 -1.6 -0.36 -2.07 t0.4 -1.03 z M20.34 16.02 l-5.22 0 q0.04 0.9 0.46 1.4 t1.38 0.5 q0.48 0 1.11 -0.14 t1.45 -0.46 q0.66 0.68 0.82 1.84 q-1.6 1.14 -3.92 1.14 q-1.26 0 -2.11 -0.4 t-1.38 -1.12 t-0.75 -1.7 t-0.22 -2.14 q0 -1.12 0.27 -2.07 t0.82 -1.65 t1.4 -1.1 t1.99 -0.4 q0.96 0 1.73 0.32 t1.31 0.88 t0.83 1.34 t0.29 1.7 q0 1.22 -0.26 2.06 z M15.1 13.86 l2.64 0 l0 -0.22 q0 -0.74 -0.33 -1.22 t-0.99 -0.48 q-0.64 0 -0.95 0.45 t-0.37 1.47 z M30.979999999999997 18.56 q-0.1 0.42 -0.38 0.9 t-0.58 0.7 q-1.4 -0.04 -2.16 -1.06 q-1.3 1.2 -2.82 1.2 q-0.78 0 -1.36 -0.25 t-0.98 -0.67 t-0.6 -0.97 t-0.2 -1.15 q0 -0.86 0.31 -1.51 t0.85 -1.08 t1.26 -0.65 t1.54 -0.22 q0.46 0 0.81 0.01 t0.61 0.03 l0 -0.38 q0 -1.26 -1.3 -1.26 q-0.84 0 -2.94 0.64 q-0.6 -0.7 -0.76 -2.18 q0.48 -0.18 1.07 -0.34 t1.21 -0.28 t1.22 -0.19 t1.08 -0.07 q0.7 0 1.35 0.2 t1.14 0.61 t0.78 1.06 t0.29 1.55 l0 4.06 q0 0.92 0.56 1.3 z M24.939999999999998 17.06 q0 0.94 1.08 0.94 q0.56 0 1.26 -0.58 l0 -1.6 q-0.4 -0.02 -0.67 -0.03 t-0.41 -0.01 q-1.26 0 -1.26 1.28 z M36.66 17.72 l0.54 0 q0.24 0.66 0.24 1.32 t-0.06 0.86 q-1.2 0.2 -2.14 0.2 q-1.36 0 -1.93 -0.67 t-0.57 -2.11 l0 -11.9 l0.12 -0.14 l1.22 0 q0.94 0 1.32 0.42 t0.38 1.46 l0 9.62 q0 0.94 0.88 0.94 z"></path></g>
			</g>
		</svg>
	